<?xml version="1.0" encoding="utf-8"?>
<!-- Generator: Adobe Illustrator 27.4.1, SVG Export Plug-In . SVG Version: 6.00 Build 0)  -->
<svg version="1.1" id="Layer_1" xmlns="http://www.w3.org/2000/svg" xmlns:xlink="http://www.w3.org/1999/xlink" x="0px" y="0px"
	 viewBox="0 0 20 20" style="enable-background:new 0 0 20 20;" xml:space="preserve">
<style type="text/css">
	.st0{fill-rule:evenodd;clip-rule:evenodd;fill:#000000;}
</style>
<path id="XMLID_3_" class="st0" d="M5.57,0.4h8.87c2.85,0,5.19,2.34,5.19,5.19v8.82c0,2.85-2.34,5.19-5.19,5.19H5.57
	c-2.85,0-5.19-2.34-5.19-5.19V5.59C0.38,2.74,2.72,0.4,5.57,0.4L5.57,0.4z M15.17,3.75L15.17,3.75c0.6,0,1.1,0.51,1.1,1.1l0,0
	c0,0.6-0.51,1.1-1.1,1.1l0,0c-0.64,0-1.1-0.51-1.1-1.1l0,0C14.07,4.26,14.52,3.75,15.17,3.75L15.17,3.75z M9.98,4.76h0.05
	c2.85,0,5.24,2.39,5.24,5.24l0,0c0,2.89-2.39,5.24-5.24,5.24H9.98c-2.85,0-5.19-2.34-5.19-5.24l0,0C4.79,7.15,7.13,4.76,9.98,4.76
	L9.98,4.76z M9.98,6.55h0.05c1.88,0,3.45,1.56,3.45,3.45l0,0c0,1.93-1.56,3.49-3.45,3.49H9.98c-1.88,0-3.45-1.56-3.45-3.49l0,0
	C6.53,8.12,8.09,6.55,9.98,6.55L9.98,6.55z M5.61,2.05h8.77c1.98,0,3.58,1.61,3.58,3.58v8.73c0,1.98-1.61,3.58-3.58,3.58H5.61
	c-1.98,0-3.58-1.61-3.58-3.58V5.64C2.03,3.66,3.64,2.05,5.61,2.05L5.61,2.05z"/>
</svg>
